#!OML:ASF F:\VICON\USERDATA\INSTALL\rory3\rory3.ASF
:FULLY-SPECIFIED
:DEGREES
856
root -4.23768 15.6918 10.2816 -525.049 -9.76543 -544.069
lowerback -1.03094 -2.37643 -1.80497
upperback -4.75796 -3.41528 0.314113
thorax -4.20422 -1.72175 1.42638
lowerneck -15.3306 1.88872 -0.814952
upperneck 27.7629 1.02147 1.70356
head 11.57 0.0593922 0.806213
rclavicle 2.45002e-014 1.19271e-015
rhumerus 315.956 11.3735 -440.057
rradius 77.7441
rwrist -83.7874
rhand 16.874 2.914
rfingers 7.12502
rthumb 41.6126 -21.8045
lclavicle 2.45002e-014 1.19271e-015
lhumerus -24.7609 -44.517 87.1215
lradius 76.5071
lwrist 57.9753
lhand 28.4787 25.0488
lfingers 7.12502
lthumb 52.3341 44.9539
rfemur -61.7228 -0.428396 23.3406
rtibia 29.8279
rfoot -6.84099 -35.5585
rtoes 36.859
lfemur -29.4761 30.8623 -35.8262
ltibia 52.4069
lfoot -44.0249 24.1561
ltoes -17.5453
857
root -4.25002 15.6969 10.2147 -524.943 -10.7081 -544.165
lowerback -0.983676 -2.74196 -1.77285
upperback -4.77681 -3.90018 0.401995
thorax -4.22957 -1.96181 1.51272
lowerneck -15.4881 1.86041 -0.587371
upperneck 27.2715 1.08013 1.47414
head 11.4162 0.11574 0.695277
rclavicle 4.09248e-014 7.95139e-015
rhumerus 316.235 11.0849 -438.923
rradius 75.3655
rwrist -81.9216
rhand 17.287 2.64658
rfingers 7.12502
rthumb 41.9998 -21.9435
lclavicle 4.09248e-014 7.95139e-015
lhumerus -23.0858 -45.851 86.275
lradius 74.4417
lwrist 55.9337
lhand 28.8447 26.079
lfingers 7.12502
lthumb 52.6653 45.781
rfemur -61.5222 0.974677 20.7612
rtibia 28.7527
rfoot -13.0622 -39.1809
rtoes 42.6505
lfemur -28.8714 30.1214 -35.5113
ltibia 51.916
lfoot -44.1634 23.3988
ltoes -16.3102
858
root -4.26786 15.7051 10.1379 -524.769 -11.4652 -544.462
lowerback -1.20153 -3.04692 -1.94635
upperback -4.78335 -4.3098 0.388209
thorax -4.0877 -2.16361 1.5896
lowerneck -15.3886 1.84794 -0.348525
upperneck 26.6404 1.13308 1.31186
head 11.1593 0.17711 0.604058
rclavicle -6.98728e-014 -2.38542e-015
rhumerus 316.477 10.7606 -437.74
rradius 72.9416
rwrist -79.9102
rhand 17.2567 2.09366
rfingers 7.12502
rthumb 41.9714 -22.506
lclavicle -6.98728e-014 -2.38542e-015
lhumerus -21.3861 -47.3578 85.3039
lradius 72.3769
lwrist 53.8372
lhand 29.0737 26.7304
lfingers 7.12502
lthumb 52.8722 46.3033
rfemur -61.3609 2.37918 17.964
rtibia 27.8014
rfoot -22.7239 -40.7398
rtoes 48.575
lfemur -28.3373 29.6892 -35.5166
ltibia 51.4609
lfoot -43.7407 23.6132
ltoes -17.5385
859
root -4.28946 15.7092 10.0538 -524.574 -12.1824 -544.956
lowerback -1.45344 -3.34645 -2.2855
upperback -4.73828 -4.71068 0.302235
thorax -3.86485 -2.35737 1.67569
lowerneck -15.3678 1.85385 -0.201067
upperneck 25.9829 1.20302 1.29761
head 10.9092 0.258081 0.585923
rclavicle -9.24349e-015 -5.96354e-015
rhumerus 316.841 10.4849 -436.597
rradius 70.3228
rwrist -77.4962
rhand 17.1718 2.24717
rfingers 7.12502
rthumb 41.8918 -22.379
lclavicle -9.24349e-015 -5.96354e-015
lhumerus -19.3171 -48.9249 84.0726
lradius 70.257
lwrist 51.8258
lhand 28.8469 26.9838
lfingers 7.12502
lthumb 52.6673 46.6846
rfemur -61.2084 3.66613 15.0471
rtibia 26.9861
rfoot -33.4965 -39.7661
rtoes 53.1927
lfemur -27.7367 29.4237 -35.7133
ltibia 51.0584
lfoot -43.1607 24.0553
ltoes -19.3943
860
root -4.30387 15.7002 9.97531 -524.223 -12.8464 -544.962
lowerback -1.76016 -3.56884 -2.18362
upperback -4.85628 -5.01234 0.379136
thorax -3.804 -2.51665 1.68483
lowerneck -15.0904 1.84903 0.000690251
upperneck 25.2035 1.26284 1.18783
head 10.5686 0.324303 0.51957
rclavicle 2.65874e-014 2.38542e-015
rhumerus 317.046 10.2501 -435.416
rradius 67.7264
rwrist -75.3231
rhand 17.2855 2.86415
rfingers 7.12502
rthumb 41.9985 -21.7264
lclavicle 2.65874e-014 2.38542e-015
lhumerus -17.089 -50.4515 82.751
lradius 68.1139
lwrist 49.5885
lhand 28.1317 26.7554
lfingers 7.12502
lthumb 52.0196 46.8494
rfemur -61.4168 4.92145 12.9524
rtibia 26.352
rfoot -43.547 -35.8785
rtoes 57.0407
lfemur -27.6246 29.1808 -35.5227
ltibia 50.8107
lfoot -42.7438 24.2191
ltoes -20.3417
861
root -4.32704 15.691 9.90188 -523.743 -13.3841 -545.192
lowerback -1.9089 -3.74863 -2.16529
upperback -5.12701 -5.28037 0.37618
thorax -3.99439 -2.65801 1.67662
lowerneck -14.5181 1.80603 -0.104995
upperneck 24.307 1.27137 1.33363
head 10.1288 0.362781 0.585326
rclavicle 7.63582e-014 2.34566e-014
rhumerus 317.188 9.78969 -433.953
rradius 65.352
rwrist -73.6204
rhand 18.0462 3.50811
rfingers 7.12502
rthumb 42.7108 -20.8392
lclavicle 7.63582e-014 2.34566e-014
lhumerus -14.9213 -51.7222 81.4289
lradius 65.9777
lwrist 47.1817
lhand 27.885 26.5364
lfingers 7.12502
lthumb 51.7958 46.7626
rfemur -61.7361 6.58758 9.88328
rtibia 25.8213
rfoot -53.3721 -28.4482
rtoes 60.3052
lfemur -27.6132 28.608 -35.7331
ltibia 50.5501
lfoot -42.7026 24.4
ltoes -20.6346
